<?xml version="1.0" encoding="iso-8859-1"?>
<!-- Uploaded to: SVG Repo, www.svgrepo.com, Generator: SVG Repo Mixer Tools -->
<svg fill="#000000" height="800px" width="800px" version="1.1" id="Layer_1" xmlns="http://www.w3.org/2000/svg" xmlns:xlink="http://www.w3.org/1999/xlink" 
	 viewBox="0 0 512.042 512.042" xml:space="preserve">
<g transform="translate(-1)">
	<g>
		<path d="M512.593,273.091c-0.008-0.041-0.019-0.08-0.027-0.121c-0.119-0.557-0.263-1.115-0.43-1.672
			c-0.043-0.145-0.082-0.29-0.127-0.434c-0.154-0.479-0.323-0.957-0.514-1.434l-0.132-0.33c-0.01-0.024-0.019-0.048-0.029-0.072
			l-42.506-106.265c-3.24-8.099-11.084-13.41-19.807-13.41v-64c0-11.782-9.551-21.333-21.333-21.333h-64
			c-11.782,0-21.333,9.551-21.333,21.333v85.333v85.333h-21.333v-42.667c0-11.782-9.551-21.333-21.333-21.333h-21.333v-42.667
			c0-11.782-9.551-21.333-21.333-21.333h-21.333V85.354c0-11.782-9.551-21.333-21.333-21.333h-85.333
			c-11.782,0-21.333,9.551-21.333,21.333v42.667H86.354c-11.782,0-21.333,9.551-21.333,21.333v42.667H43.688
			c-11.782,0-21.333,9.551-21.333,21.333v42.667c-15.093,0-25.413,15.243-19.807,29.256l41.141,102.852v17.289
			c0,23.515,19.087,42.603,42.603,42.603h315.157c9.387,0,18.498-2.975,26.162-8.38c1.776-1.207,2.802-1.959,4.217-3.213
			l18.798-16.928l10.374-9.349l42.268-38.024c6.198-5.579,9.754-13.536,9.754-21.876v-72.194
			C513.075,276.422,512.94,274.759,512.593,273.091z M385.021,106.688h21.333v42.667h-21.333V106.688z M385.021,192.021h42.667h6.89
			l25.6,64h-75.157V192.021z M150.354,256.021v-21.333h21.333h21.333v21.333H150.354z M235.688,234.688h21.333h21.333v21.333
			h-42.667V234.688z M214.354,192.021h-21.333v-21.333h21.333h21.333v21.333H214.354z M150.354,106.688h42.667v21.333h-21.333
			h-21.333V106.688z M107.688,170.688h21.333h21.333v21.333h-21.333h-21.333V170.688z M65.021,234.688h21.333h21.333v21.333H65.021
			V234.688z M470.354,344.344l-37.905,34.099l-10.382,9.357l-18.661,16.805c-0.955,0.569-1.506,0.748-1.958,0.748H86.354v-21.333
			c0-2.714-0.518-5.403-1.526-7.923l-30.964-77.41h75.157h85.333h85.333h64h106.667V344.344z"/>
	</g>
</g>
</svg>